<svg viewBox="0 0 1024 1024" xmlns="http://www.w3.org/2000/svg">
  <path d="M484.39552 97.943893c24.571733-12.524373 53.823147-12.24192 78.143147 0.753494l443.925333 237.21472c23.7312 12.68224 23.278933 46.472533-0.776533 58.533546L560.633173 617.521493c-23.292587 11.674453-50.76992 11.930453-74.28096 0.689494L18.879147 394.711893c-24.815787-11.863893-25.265493-46.621867-0.76544-59.109546L484.394667 97.943893z" fill="#1296db"/>
  <path d="M464.505173 662.843733c37.61152 17.975467 81.573547 17.560747 118.834347-1.1136l255.78496-128.210773v239.463253c0 29.905067-20.334933 56.08192-49.575253 63.83104l-192.961707 82.610347c-22.710613 11.383467-94.972587 21.9904-118.083413 11.588267 3.15904 0.878933-3.234133-0.4096 0 0L218.79808 828.552533c-28.831573-8.032427-48.7424-34.03008-48.7424-63.62112V522.06336L464.505173 662.843733zM906.0352 398.96832c0-22.813013 18.722133-41.306453 41.813333-41.306453s41.813333 18.49344 41.813333 41.306453v264.359253c0 22.813013-18.722133 41.306453-41.813334 41.306454s-41.813333-18.49344-41.813333-41.306454V398.96832z" fill="#1296db"/>
</svg>
